{"glyphs":{"0":{"ha":818,"x_min":69,"x_max":776,"o":"m 424 0 q 173 104 276 0 q 69 356 69 208 q 173 604 69 501 q 424 707 276 707 q 673 604 569 707 q 776 356 776 501 q 673 104 776 208 q 424 0 569 0 m 583 435 l 435 176 q 553 233 506 182 q 601 356 601 285 q 583 435 601 397 m 424 535 q 297 482 349 535 q 244 356 244 429 q 276 253 244 299 l 438 533 q 424 535 431 535 z "},"1":{"ha":551,"x_min":244,"x_max":510,"o":"m 335 0 l 335 533 l 244 533 l 343 707 l 510 707 l 510 0 l 335 0 z "},"2":{"ha":789,"x_min":83,"x_max":747,"o":"m 747 0 l 83 0 l 83 222 q 148 377 83 313 q 303 442 213 442 l 525 442 q 556 455 543 442 q 569 488 569 468 q 556 520 569 507 q 525 533 543 533 l 165 533 l 165 707 l 525 707 q 680 642 615 707 q 744 488 744 578 q 680 333 744 397 q 525 268 615 268 l 303 268 q 261 233 269 268 q 258 172 258 222 l 747 172 l 747 0 z "},"3":{"ha":792,"x_min":111,"x_max":750,"o":"m 589 433 q 694 351 654 410 q 735 222 735 292 q 670 66 735 132 q 514 0 606 0 l 111 0 l 111 172 l 514 172 q 547 188 533 172 q 560 222 560 204 q 547 255 560 242 q 514 268 533 268 l 111 268 l 111 442 l 393 442 l 446 533 l 111 533 l 111 707 l 750 707 l 589 433 z "},"4":{"ha":831,"x_min":56,"x_max":789,"o":"m 661 131 l 661 0 l 486 0 l 486 131 l 56 131 l 56 279 l 293 707 l 661 707 l 661 294 l 789 294 l 789 131 l 661 131 m 486 533 l 397 533 l 268 294 l 486 294 l 486 533 z "},"5":{"ha":800,"x_min":97,"x_max":758,"o":"m 539 0 l 101 0 l 101 172 l 539 172 q 570 188 557 172 q 583 222 583 203 q 570 254 583 240 q 539 268 557 268 l 317 268 q 162 333 226 268 q 97 488 97 397 l 97 707 l 665 707 l 667 533 l 272 533 l 272 488 q 285 455 272 468 q 317 442 299 442 l 539 442 q 694 377 629 442 q 758 222 758 313 q 694 65 758 131 q 539 0 629 0 z "},"6":{"ha":814,"x_min":83,"x_max":772,"o":"m 551 0 l 438 0 q 187 104 290 0 q 83 354 83 208 q 187 604 83 501 q 438 707 290 707 l 735 707 l 735 533 l 438 533 q 282 442 332 533 l 551 442 q 708 377 643 442 q 772 222 772 313 q 708 65 772 131 q 551 0 643 0 m 551 268 l 281 268 q 438 172 333 172 l 551 172 q 584 188 571 172 q 597 222 597 203 q 584 254 597 240 q 551 268 571 268 z "},"7":{"ha":782,"x_min":125,"x_max":740,"o":"m 331 0 l 125 0 l 436 533 l 140 533 l 140 707 l 740 707 l 331 0 z "},"8":{"ha":793,"x_min":83,"x_max":751,"o":"m 532 0 l 303 0 q 148 66 213 0 q 83 222 83 132 q 165 393 83 328 q 143 489 143 439 q 208 643 143 579 q 363 707 272 707 l 472 707 q 628 643 564 707 q 693 489 693 579 q 671 393 693 439 q 751 222 751 328 q 688 66 751 132 q 532 0 624 0 m 472 533 l 363 533 q 317 489 317 533 q 331 456 317 469 q 363 442 344 442 l 472 442 q 505 456 492 442 q 518 489 518 469 q 472 533 518 533 m 547 268 l 288 268 q 242 222 242 268 q 256 188 242 204 q 288 172 269 172 l 547 172 q 580 188 567 172 q 593 222 593 204 q 547 268 593 268 z "},"9":{"ha":814,"x_min":83,"x_max":772,"o":"m 418 0 l 121 0 l 121 172 l 418 172 q 574 268 521 172 l 303 268 q 148 333 213 268 q 83 489 83 397 q 148 643 83 579 q 303 707 213 707 l 418 707 q 669 604 565 707 q 772 356 772 501 q 669 104 772 208 q 418 0 565 0 m 418 533 l 303 533 q 258 489 258 533 q 272 456 258 469 q 303 442 285 442 l 575 442 q 418 533 524 533 z "}," ":{"ha":376,"x_min":0,"x_max":0,"o":""},"!":{"ha":247,"x_min":-10,"x_max":154,"o":"m -10 268 l -10 990 l 154 990 l 154 268 l -10 268 m -10 -3 l -10 161 l 154 161 l 154 -3 l -10 -3 z "},"\"":{"ha":518,"x_min":-14,"x_max":422,"o":"m 258 624 l 258 990 l 422 990 l 422 624 l 258 624 m -14 624 l -14 990 l 150 990 l 150 624 l -14 624 z "},"#":{"ha":790,"x_min":-15,"x_max":707,"o":"m 564 275 l 564 133 l 400 133 l 400 275 l 292 275 l 292 133 l 129 133 l 129 275 l -15 275 l -15 439 l 129 439 l 129 547 l -15 547 l -15 713 l 129 713 l 129 854 l 292 854 l 292 713 l 400 713 l 400 854 l 564 854 l 564 713 l 707 713 l 707 547 l 564 547 l 564 439 l 707 439 l 707 275 l 564 275 m 400 547 l 292 547 l 292 439 l 400 439 l 400 547 z "},"$":{"ha":675,"x_min":-17,"x_max":601,"o":"m 374 3 l 374 -75 l 210 -75 l 210 3 q -17 301 -17 43 l 147 301 q 210 171 147 192 l 210 436 q 50 526 103 472 q -17 701 -17 593 q 210 985 -17 944 l 210 1056 l 374 1056 l 374 983 q 600 688 601 944 l 438 688 q 374 818 438 796 l 374 557 q 600 286 600 478 q 374 3 600 42 m 210 817 q 147 701 147 794 q 210 613 147 642 l 210 817 m 374 381 l 374 171 q 438 286 438 192 q 374 381 438 350 z "},"%":{"ha":1075,"x_min":-26,"x_max":1021,"o":"m 832 471 q 1021 235 1021 450 q 964 60 1021 124 q 797 -3 907 -3 q 630 60 688 -3 q 572 235 572 124 q 630 409 572 346 q 797 472 688 472 l 799 472 l 832 472 l 832 471 m 350 -118 l 197 -57 l 632 994 l 782 932 l 350 -118 m 232 921 q 422 686 422 901 q 365 511 422 574 q 197 449 307 449 q 31 511 88 449 q -26 686 -26 574 q 31 860 -26 797 q 197 922 88 922 l 199 922 l 232 922 l 232 921 m 797 313 q 742 292 754 313 q 732 235 732 278 q 753 164 732 176 q 825 156 765 156 l 825 128 l 797 128 l 797 156 q 851 175 839 156 q 861 235 861 189 q 853 292 861 278 q 797 313 840 313 m 197 763 q 142 743 154 763 q 132 686 132 729 q 153 615 132 628 q 224 607 165 607 l 224 579 l 197 579 l 197 607 q 251 624 239 607 q 263 686 263 640 q 253 743 263 729 q 197 763 240 763 z "},"&":{"ha":921,"x_min":-25,"x_max":863,"o":"m 590 410 l 483 410 l 483 163 l 619 163 l 619 -4 l 483 -4 l 483 -71 l 319 -71 l 319 -4 l 249 -4 q 44 75 115 -4 q -25 286 -25 150 q 44 499 -25 422 q 249 575 114 575 l 318 575 l 318 700 q 388 912 318 835 q 590 989 457 989 q 793 912 724 989 q 863 700 863 835 q 794 489 863 564 q 590 410 724 410 m 590 825 q 505 797 526 825 q 483 700 483 768 l 483 575 l 590 575 q 678 604 654 575 q 697 700 697 631 q 676 797 697 768 q 590 825 654 825 m 318 410 l 249 410 q 163 383 183 410 q 142 286 142 356 q 161 192 142 217 q 249 163 185 163 l 318 163 l 318 410 z "},"'":{"ha":247,"x_min":-12,"x_max":151,"o":"m -12 624 l -12 990 l 151 990 l 151 624 l -12 624 z "},"(":{"ha":410,"x_min":-14,"x_max":346,"o":"m -14 47 l -14 667 q 346 990 -14 990 l 346 826 q 197 794 240 828 q 150 667 150 758 l 150 47 q 197 -79 150 -44 q 346 -112 240 -112 l 346 -276 q -14 47 -14 -276 z "},")":{"ha":436,"x_min":-15,"x_max":344,"o":"m -15 -276 l -15 -112 q 135 -78 90 -112 q 181 47 181 -44 l 181 667 q 135 793 181 758 q -15 826 90 828 l -15 990 q 344 667 344 990 l 344 47 q -15 -276 344 -276 z "},"*":{"ha":778,"x_min":-15,"x_max":707,"o":"m 488 275 l 599 86 l 454 4 l 346 193 l 236 4 l 94 86 l 203 275 l -15 275 l -15 439 l 203 439 l 94 629 l 236 711 l 346 521 l 454 711 l 599 629 l 488 439 l 707 439 l 707 275 l 488 275 z "},"+":{"ha":590,"x_min":-12,"x_max":511,"o":"m 332 275 l 332 96 l 168 96 l 168 275 l -12 275 l -12 439 l 168 439 l 168 619 l 332 619 l 332 439 l 511 439 l 511 275 l 332 275 z "},",":{"ha":243,"x_min":-12,"x_max":151,"o":"m -12 -160 l -12 161 l 151 161 l 151 6 l -12 -160 z "},"-":{"ha":565,"x_min":147,"x_max":524,"o":"m 147 267 l 147 440 l 524 440 l 524 267 l 147 267 z "},".":{"ha":249,"x_min":-8,"x_max":157,"o":"m -8 -3 l -8 161 l 157 161 l 157 -3 l -8 -3 z "},"/":{"ha":556,"x_min":-133,"x_max":542,"o":"m 18 -333 l -133 -271 l 392 993 l 542 931 l 18 -333 z "},":":{"ha":214,"x_min":0,"x_max":172,"o":"m 86 406 q 25 431 50 406 q 0 492 0 456 q 25 553 0 528 q 86 578 50 578 q 147 553 122 578 q 172 492 172 528 q 147 431 172 456 q 86 406 122 406 m 86 136 q 25 162 50 136 q 0 222 0 188 q 25 283 0 258 q 86 308 50 308 q 147 283 122 308 q 172 222 172 258 q 147 162 172 188 q 86 136 122 136 z "},";":{"ha":243,"x_min":-10,"x_max":154,"o":"m -10 343 l -10 507 l 154 507 l 154 343 l -10 343 m -10 -160 l -10 161 l 154 161 l 154 6 l -10 -160 z "},"<":{"ha":497,"x_min":-24,"x_max":428,"o":"m 311 22 l -24 357 l 311 692 l 428 576 l 208 357 l 428 138 l 311 22 z "},"=":{"ha":618,"x_min":-15,"x_max":557,"o":"m -15 479 l -15 643 l 557 643 l 557 479 l -15 479 m -15 133 l -15 297 l 557 297 l 557 133 l -15 133 z "},">":{"ha":488,"x_min":-25,"x_max":426,"o":"m 92 22 l -25 138 l 194 357 l -25 576 l 92 692 l 426 357 l 92 22 z "},"?":{"ha":621,"x_min":0,"x_max":579,"o":"m 325 268 q 244 222 244 268 l 244 199 l 71 199 l 71 222 q 135 377 71 313 q 290 442 199 442 l 360 442 q 391 456 378 442 q 404 488 404 469 q 391 520 404 507 q 360 533 378 533 l 0 533 l 0 708 l 360 708 q 515 644 450 708 q 579 488 579 579 q 515 333 579 397 q 360 268 450 268 q 342 268 354 268 q 325 268 331 268 m 157 0 q 96 26 121 0 q 71 86 71 51 q 96 147 71 122 q 157 172 121 172 q 217 147 192 172 q 243 86 243 122 q 217 26 243 51 q 157 0 192 0 z "},"@":{"ha":1329,"x_min":-15,"x_max":1246,"o":"m 767 969 q 1110 747 975 918 q 1246 357 1246 576 q 1207 151 1246 246 q 1075 -10 1163 43 q 957 -44 1018 -44 q 801 33 861 -44 q 617 -3 732 -3 q 417 43 493 -3 q 322 219 322 99 q 417 396 322 339 q 617 440 493 440 q 743 474 724 440 q 747 497 747 481 q 743 521 747 515 q 617 556 725 556 q 535 549 557 556 q 488 483 483 533 l 322 483 q 417 672 321 613 q 617 719 492 719 q 817 674 740 719 q 910 497 910 617 l 910 219 q 957 119 910 119 q 999 136 976 119 q 1082 357 1082 197 q 945 688 1082 550 q 615 825 808 825 q 285 688 422 825 q 149 357 149 550 q 285 27 149 164 q 615 -110 422 -110 l 697 -110 l 697 -274 l 615 -274 q 170 -88 356 -274 q -15 357 -15 97 q 170 803 -15 618 q 615 988 356 988 l 767 988 l 767 969 m 747 292 q 617 275 690 275 q 490 244 511 275 q 486 219 486 238 q 490 193 486 201 q 617 161 508 161 q 742 192 721 161 q 747 219 747 200 l 747 292 z "},"A":{"ha":756,"x_min":0,"x_max":714,"o":"m 360 0 l 219 0 q 65 65 129 0 q 0 221 0 129 l 0 439 l 515 439 q 360 532 464 532 l 185 532 l 185 707 l 360 707 q 610 603 506 707 q 714 353 714 500 q 610 103 714 207 q 360 0 506 0 m 175 269 l 175 221 q 188 188 174 201 q 219 175 201 175 l 360 175 q 515 269 464 175 l 175 269 z "},"B":{"ha":763,"x_min":0,"x_max":721,"o":"m 367 0 l 221 0 q 65 65 131 0 q 0 221 0 129 l 0 828 l 174 828 l 174 707 l 367 707 q 617 603 514 707 q 721 353 721 500 q 617 103 721 207 q 367 0 514 0 m 367 532 l 174 532 l 174 221 q 188 188 174 201 q 221 175 201 175 l 367 175 q 494 227 442 175 q 546 353 546 279 q 494 480 546 428 q 367 532 442 532 z "},"C":{"ha":636,"x_min":0,"x_max":594,"o":"m 354 0 q 103 103 207 0 q 0 353 0 207 q 103 603 0 500 q 354 707 207 707 l 594 707 l 594 532 l 354 532 q 227 480 279 532 q 175 353 175 428 q 227 227 175 279 q 354 175 279 175 l 594 175 l 594 0 l 354 0 z "},"D":{"ha":763,"x_min":0,"x_max":721,"o":"m 500 0 l 354 0 q 103 103 207 0 q 0 353 0 207 q 103 603 0 500 q 354 707 207 707 l 547 707 l 547 828 l 721 828 l 721 221 q 656 65 721 129 q 500 0 592 0 m 547 532 l 354 532 q 227 480 279 532 q 175 353 175 428 q 227 227 175 279 q 354 175 279 175 l 500 175 q 533 188 519 175 q 547 221 547 201 l 547 532 z "},"E":{"ha":756,"x_min":0,"x_max":714,"o":"m 197 269 q 354 175 250 175 l 529 175 l 529 0 l 354 0 q 103 103 207 0 q 0 353 0 207 q 103 603 0 500 q 354 707 207 707 l 493 707 q 649 642 585 707 q 714 486 714 578 l 714 269 l 197 269 m 493 532 l 354 532 q 197 439 249 532 l 539 439 l 539 486 q 526 519 539 506 q 493 532 513 532 z "},"F":{"ha":429,"x_min":0,"x_max":388,"o":"m 174 269 l 174 -121 l 0 -121 l 0 486 q 65 642 0 578 q 221 707 131 707 l 388 707 l 388 532 l 221 532 q 178 499 186 532 q 174 439 174 488 l 388 439 l 388 269 l 174 269 z "},"G":{"ha":779,"x_min":0,"x_max":738,"o":"m 518 0 l 354 0 q 103 103 207 0 q 0 353 0 207 q 103 603 0 500 q 354 707 207 707 l 619 707 l 619 532 l 354 532 q 227 480 279 532 q 175 353 175 428 q 227 227 175 279 q 354 175 279 175 l 518 175 q 551 188 538 175 q 564 221 564 201 l 564 269 l 278 269 l 278 439 l 738 439 l 738 221 q 674 65 738 129 q 518 0 610 0 z "},"H":{"ha":763,"x_min":0,"x_max":721,"o":"m 546 0 l 546 353 q 494 480 546 428 q 367 532 442 532 l 174 532 l 174 0 l 0 0 l 0 828 l 174 828 l 174 707 l 367 707 q 617 603 514 707 q 721 353 721 500 l 721 0 l 546 0 z "},"I":{"ha":217,"x_min":0,"x_max":175,"o":"m 0 0 l 0 707 l 175 707 l 175 0 l 0 0 z "},"J":{"ha":650,"x_min":0,"x_max":608,"o":"m 254 0 l 0 0 l 0 175 l 254 175 q 381 227 329 175 q 433 353 433 279 l 433 707 l 608 707 l 608 353 q 505 103 608 207 q 254 0 401 0 z "},"K":{"ha":789,"x_min":0,"x_max":747,"o":"m 542 0 l 388 269 l 186 269 l 186 0 l 0 0 l 0 707 l 186 707 l 186 439 l 400 439 q 433 453 419 439 q 446 486 446 468 l 446 707 l 621 707 l 621 486 q 602 379 621 438 q 554 288 583 321 l 747 0 l 542 0 z "},"L":{"ha":650,"x_min":0,"x_max":608,"o":"m 354 0 q 103 103 207 0 q 0 353 0 207 l 0 707 l 175 707 l 175 353 q 227 227 175 279 q 354 175 279 175 l 608 175 l 608 0 l 354 0 z "},"M":{"ha":1282,"x_min":0,"x_max":1240,"o":"m 1240 0 l 1065 0 l 1065 353 q 1013 481 1065 428 q 886 533 960 533 q 757 476 807 533 q 707 339 707 419 l 707 0 l 532 0 l 532 353 q 480 481 532 428 q 354 533 428 533 q 225 476 275 533 q 175 339 175 419 l 175 0 l 0 0 l 0 353 q 103 605 0 500 q 354 710 207 710 q 619 588 513 710 q 886 710 726 710 q 1136 605 1032 710 q 1240 353 1240 500 l 1240 0 z "},"N":{"ha":756,"x_min":0,"x_max":714,"o":"m 539 0 l 539 360 q 486 483 539 433 q 360 533 433 533 l 219 533 q 175 492 175 533 l 175 0 l 0 0 l 0 492 q 65 647 0 583 q 219 710 129 710 l 360 710 q 610 608 506 710 q 714 360 714 506 l 714 0 l 539 0 z "},"O":{"ha":749,"x_min":0,"x_max":707,"o":"m 354 0 q 103 103 207 0 q 0 354 0 207 q 103 605 0 500 q 354 710 207 710 q 603 605 500 710 q 707 354 707 500 q 603 103 707 207 q 354 0 500 0 m 354 533 q 227 481 279 533 q 175 354 175 428 q 227 228 175 281 q 354 175 279 175 q 480 228 428 175 q 532 354 532 281 q 480 481 532 428 q 354 533 428 533 z "},"P":{"ha":763,"x_min":0,"x_max":721,"o":"m 174 0 l 174 -119 l 0 -119 l 0 488 q 65 644 0 578 q 221 710 131 710 l 367 710 q 617 605 514 710 q 721 354 721 500 q 617 103 721 207 q 367 0 514 0 l 174 0 m 367 533 l 221 533 q 188 519 203 533 q 174 488 174 506 l 174 175 l 367 175 q 494 228 442 175 q 546 354 546 281 q 494 481 546 428 q 367 533 442 533 z "},"Q":{"ha":763,"x_min":0,"x_max":721,"o":"m 547 -119 l 547 0 l 354 0 q 103 103 207 0 q 0 354 0 207 q 103 605 0 500 q 354 710 207 710 l 500 710 q 656 644 590 710 q 721 488 721 578 l 721 -119 l 547 -119 m 500 533 l 354 533 q 227 481 279 533 q 175 354 175 428 q 227 228 175 281 q 354 175 279 175 l 547 175 l 547 488 q 533 519 547 506 q 500 533 519 533 z "},"R":{"ha":756,"x_min":0,"x_max":744,"o":"m 542 0 l 389 267 l 186 267 l 186 0 l 0 0 l 0 354 q 103 605 0 500 q 354 710 207 710 l 493 710 q 649 644 585 710 q 714 486 714 578 l 714 267 l 590 267 l 744 0 l 542 0 m 493 533 l 354 533 q 197 440 249 533 l 539 440 l 539 486 q 526 519 539 506 q 493 533 513 533 z "},"S":{"ha":699,"x_min":-4,"x_max":657,"o":"m 438 0 l 0 0 l 0 175 l 438 175 q 482 219 482 175 q 469 252 482 239 q 438 265 456 265 l 215 265 q 60 331 125 265 q -4 486 -4 396 q 60 644 -4 578 q 215 710 125 710 l 524 710 l 524 533 l 215 533 q 184 519 197 533 q 171 486 171 506 q 184 453 171 467 q 215 440 197 440 l 438 440 q 592 376 528 440 q 657 219 657 311 q 592 65 657 129 q 438 0 528 0 z "},"T":{"ha":686,"x_min":0,"x_max":644,"o":"m 449 0 q 198 103 301 0 q 94 353 94 207 l 94 533 l 0 533 l 0 710 l 644 710 l 644 533 l 269 533 l 269 353 q 322 227 269 279 q 449 175 374 175 l 644 175 l 644 0 l 449 0 z "},"U":{"ha":756,"x_min":0,"x_max":714,"o":"m 493 0 l 354 0 q 103 103 207 0 q 0 353 0 207 l 0 710 l 175 710 l 175 354 q 227 227 175 279 q 354 175 279 175 l 493 175 q 526 189 513 175 q 539 221 539 203 l 539 710 l 714 710 l 714 221 q 649 65 714 131 q 493 0 585 0 z "},"V":{"ha":896,"x_min":0,"x_max":854,"o":"m 446 0 l 354 0 q 103 103 207 0 q 0 353 0 207 l 0 710 l 175 710 l 175 354 q 223 232 175 283 q 342 175 271 181 l 651 710 l 854 710 l 446 0 z "},"W":{"ha":1282,"x_min":0,"x_max":1240,"o":"m 0 710 l 175 710 l 175 357 q 227 229 175 282 q 354 176 279 176 q 482 233 432 176 q 532 371 532 290 l 532 710 l 707 710 l 707 357 q 760 229 707 282 q 886 176 813 176 q 1015 233 964 176 q 1065 371 1065 290 l 1065 710 l 1240 710 l 1240 357 q 1136 105 1240 210 q 886 0 1032 0 q 619 122 726 0 q 354 0 514 0 q 103 105 207 0 q 0 357 0 210 l 0 710 z "},"X":{"ha":851,"x_min":0,"x_max":810,"o":"m 607 0 l 453 267 l 372 267 q 247 214 299 267 q 194 88 194 161 l 194 0 l 19 0 l 19 88 q 63 259 19 179 q 185 388 107 339 l 0 708 l 203 708 l 357 440 q 467 442 365 442 q 498 455 485 442 q 511 488 511 468 l 511 708 l 686 708 l 686 488 q 619 329 686 394 l 810 0 l 607 0 z "},"Y":{"ha":756,"x_min":0,"x_max":714,"o":"m 360 0 l 193 0 l 193 174 l 360 174 q 515 267 464 174 l 219 267 q 65 331 129 267 q 0 486 0 396 l 0 708 l 175 708 l 175 486 q 188 454 175 468 q 219 440 201 440 l 539 440 l 539 708 l 714 708 l 714 353 q 610 103 714 207 q 360 0 506 0 z "},"Z":{"ha":706,"x_min":0,"x_max":664,"o":"m 664 0 l 0 0 l 0 222 q 65 377 0 313 q 219 442 129 442 l 421 442 q 463 476 456 442 q 465 536 465 486 l 71 536 l 71 708 l 640 708 l 640 488 q 576 332 640 397 q 421 267 511 267 l 219 267 q 178 233 186 267 q 175 174 175 224 l 664 174 l 664 0 z "},"[":{"ha":431,"x_min":-6,"x_max":372,"o":"m 157 826 l 157 -112 l 335 -112 l 335 -276 l -6 -276 l -6 990 l 372 990 l 372 826 l 157 826 z "},"\\":{"ha":590,"x_min":-25,"x_max":650,"o":"m 500 -333 l -25 931 l 126 993 l 650 -271 l 500 -333 z "},"]":{"ha":425,"x_min":-14,"x_max":328,"o":"m -14 -276 l -14 -112 l 163 -112 l 163 826 l -14 826 l -14 990 l 328 990 l 328 -276 l -14 -276 z "},"^":{"ha":643,"x_min":-21,"x_max":572,"o":"m 499 696 l 276 808 l 53 696 l -21 842 l 276 993 l 572 842 l 499 696 z "},"_":{"ha":753,"x_min":-15,"x_max":767,"o":"m -15 -208 l -15 -44 l 767 -44 l 767 -208 l -15 -208 z "},"`":{"ha":557,"x_min":-32,"x_max":482,"o":"m 450 711 q -32 807 292 743 l 1 969 q 242 920 83 950 q 482 871 400 890 l 450 711 z "},"a":{"ha":756,"x_min":0,"x_max":714,"o":"m 360 0 l 219 0 q 65 65 129 0 q 0 221 0 129 l 0 439 l 515 439 q 360 532 464 532 l 185 532 l 185 707 l 360 707 q 610 603 506 707 q 714 353 714 500 q 610 103 714 207 q 360 0 506 0 m 175 269 l 175 221 q 188 188 174 201 q 219 175 201 175 l 360 175 q 515 269 464 175 l 175 269 z "},"b":{"ha":763,"x_min":0,"x_max":721,"o":"m 367 0 l 221 0 q 65 65 131 0 q 0 221 0 129 l 0 828 l 174 828 l 174 707 l 367 707 q 617 603 514 707 q 721 353 721 500 q 617 103 721 207 q 367 0 514 0 m 367 532 l 174 532 l 174 221 q 188 188 174 201 q 221 175 201 175 l 367 175 q 494 227 442 175 q 546 353 546 279 q 494 480 546 428 q 367 532 442 532 z "},"c":{"ha":636,"x_min":0,"x_max":594,"o":"m 354 0 q 103 103 207 0 q 0 353 0 207 q 103 603 0 500 q 354 707 207 707 l 594 707 l 594 532 l 354 532 q 227 480 279 532 q 175 353 175 428 q 227 227 175 279 q 354 175 279 175 l 594 175 l 594 0 l 354 0 z "},"d":{"ha":763,"x_min":0,"x_max":721,"o":"m 500 0 l 354 0 q 103 103 207 0 q 0 353 0 207 q 103 603 0 500 q 354 707 207 707 l 547 707 l 547 828 l 721 828 l 721 221 q 656 65 721 129 q 500 0 592 0 m 547 532 l 354 532 q 227 480 279 532 q 175 353 175 428 q 227 227 175 279 q 354 175 279 175 l 500 175 q 533 188 519 175 q 547 221 547 201 l 547 532 z "},"e":{"ha":756,"x_min":0,"x_max":714,"o":"m 197 269 q 354 175 250 175 l 529 175 l 529 0 l 354 0 q 103 103 207 0 q 0 353 0 207 q 103 603 0 500 q 354 707 207 707 l 493 707 q 649 642 585 707 q 714 486 714 578 l 714 269 l 197 269 m 493 532 l 354 532 q 197 439 249 532 l 539 439 l 539 486 q 526 519 539 506 q 493 532 513 532 z "},"f":{"ha":429,"x_min":0,"x_max":388,"o":"m 174 269 l 174 -121 l 0 -121 l 0 486 q 65 642 0 578 q 221 707 131 707 l 388 707 l 388 532 l 221 532 q 178 499 186 532 q 174 439 174 488 l 388 439 l 388 269 l 174 269 z "},"g":{"ha":779,"x_min":0,"x_max":738,"o":"m 518 0 l 354 0 q 103 103 207 0 q 0 353 0 207 q 103 603 0 500 q 354 707 207 707 l 619 707 l 619 532 l 354 532 q 227 480 279 532 q 175 353 175 428 q 227 227 175 279 q 354 175 279 175 l 518 175 q 551 188 538 175 q 564 221 564 201 l 564 269 l 278 269 l 278 439 l 738 439 l 738 221 q 674 65 738 129 q 518 0 610 0 z "},"h":{"ha":763,"x_min":0,"x_max":721,"o":"m 546 0 l 546 353 q 494 480 546 428 q 367 532 442 532 l 174 532 l 174 0 l 0 0 l 0 828 l 174 828 l 174 707 l 367 707 q 617 603 514 707 q 721 353 721 500 l 721 0 l 546 0 z "},"i":{"ha":217,"x_min":0,"x_max":175,"o":"m 0 0 l 0 707 l 175 707 l 175 0 l 0 0 z "},"j":{"ha":650,"x_min":0,"x_max":608,"o":"m 254 0 l 0 0 l 0 175 l 254 175 q 381 227 329 175 q 433 353 433 279 l 433 707 l 608 707 l 608 353 q 505 103 608 207 q 254 0 401 0 z "},"k":{"ha":789,"x_min":0,"x_max":747,"o":"m 542 0 l 388 269 l 186 269 l 186 0 l 0 0 l 0 707 l 186 707 l 186 439 l 400 439 q 433 453 419 439 q 446 486 446 468 l 446 707 l 621 707 l 621 486 q 602 379 621 438 q 554 288 583 321 l 747 0 l 542 0 z "},"l":{"ha":650,"x_min":0,"x_max":608,"o":"m 354 0 q 103 103 207 0 q 0 353 0 207 l 0 707 l 175 707 l 175 353 q 227 227 175 279 q 354 175 279 175 l 608 175 l 608 0 l 354 0 z "},"m":{"ha":1282,"x_min":0,"x_max":1240,"o":"m 1240 0 l 1065 0 l 1065 353 q 1013 481 1065 428 q 886 533 960 533 q 757 476 807 533 q 707 339 707 419 l 707 0 l 532 0 l 532 353 q 480 481 532 428 q 354 533 428 533 q 225 476 275 533 q 175 339 175 419 l 175 0 l 0 0 l 0 353 q 103 605 0 500 q 354 710 207 710 q 619 588 513 710 q 886 710 726 710 q 1136 605 1032 710 q 1240 353 1240 500 l 1240 0 z "},"n":{"ha":756,"x_min":0,"x_max":714,"o":"m 539 0 l 539 360 q 486 483 539 433 q 360 533 433 533 l 219 533 q 175 492 175 533 l 175 0 l 0 0 l 0 492 q 65 647 0 583 q 219 710 129 710 l 360 710 q 610 608 506 710 q 714 360 714 506 l 714 0 l 539 0 z "},"o":{"ha":749,"x_min":0,"x_max":707,"o":"m 354 0 q 103 103 207 0 q 0 354 0 207 q 103 605 0 500 q 354 710 207 710 q 603 605 500 710 q 707 354 707 500 q 603 103 707 207 q 354 0 500 0 m 354 533 q 227 481 279 533 q 175 354 175 428 q 227 228 175 281 q 354 175 279 175 q 480 228 428 175 q 532 354 532 281 q 480 481 532 428 q 354 533 428 533 z "},"p":{"ha":763,"x_min":0,"x_max":721,"o":"m 174 0 l 174 -119 l 0 -119 l 0 488 q 65 644 0 578 q 221 710 131 710 l 367 710 q 617 605 514 710 q 721 354 721 500 q 617 103 721 207 q 367 0 514 0 l 174 0 m 367 533 l 221 533 q 188 519 203 533 q 174 488 174 506 l 174 175 l 367 175 q 494 228 442 175 q 546 354 546 281 q 494 481 546 428 q 367 533 442 533 z "},"q":{"ha":763,"x_min":0,"x_max":721,"o":"m 547 -119 l 547 0 l 354 0 q 103 103 207 0 q 0 354 0 207 q 103 605 0 500 q 354 710 207 710 l 500 710 q 656 644 590 710 q 721 488 721 578 l 721 -119 l 547 -119 m 500 533 l 354 533 q 227 481 279 533 q 175 354 175 428 q 227 228 175 281 q 354 175 279 175 l 547 175 l 547 488 q 533 519 547 506 q 500 533 519 533 z "},"r":{"ha":756,"x_min":0,"x_max":744,"o":"m 542 0 l 389 267 l 186 267 l 186 0 l 0 0 l 0 354 q 103 605 0 500 q 354 710 207 710 l 493 710 q 649 644 585 710 q 714 486 714 578 l 714 267 l 590 267 l 744 0 l 542 0 m 493 533 l 354 533 q 197 440 249 533 l 539 440 l 539 486 q 526 519 539 506 q 493 533 513 533 z "},"s":{"ha":699,"x_min":-4,"x_max":657,"o":"m 438 0 l 0 0 l 0 175 l 438 175 q 482 219 482 175 q 469 252 482 239 q 438 265 456 265 l 215 265 q 60 331 125 265 q -4 486 -4 396 q 60 644 -4 578 q 215 710 125 710 l 524 710 l 524 533 l 215 533 q 184 519 197 533 q 171 486 171 506 q 184 453 171 467 q 215 440 197 440 l 438 440 q 592 376 528 440 q 657 219 657 311 q 592 65 657 129 q 438 0 528 0 z "},"t":{"ha":686,"x_min":0,"x_max":644,"o":"m 449 0 q 198 103 301 0 q 94 353 94 207 l 94 533 l 0 533 l 0 710 l 644 710 l 644 533 l 269 533 l 269 353 q 322 227 269 279 q 449 175 374 175 l 644 175 l 644 0 l 449 0 z "},"u":{"ha":756,"x_min":0,"x_max":714,"o":"m 493 0 l 354 0 q 103 103 207 0 q 0 353 0 207 l 0 710 l 175 710 l 175 354 q 227 227 175 279 q 354 175 279 175 l 493 175 q 526 189 513 175 q 539 221 539 203 l 539 710 l 714 710 l 714 221 q 649 65 714 131 q 493 0 585 0 z "},"v":{"ha":896,"x_min":0,"x_max":854,"o":"m 446 0 l 354 0 q 103 103 207 0 q 0 353 0 207 l 0 710 l 175 710 l 175 354 q 223 232 175 283 q 342 175 271 181 l 651 710 l 854 710 l 446 0 z "},"w":{"ha":1282,"x_min":0,"x_max":1240,"o":"m 0 710 l 175 710 l 175 357 q 227 229 175 282 q 354 176 279 176 q 482 233 432 176 q 532 371 532 290 l 532 710 l 707 710 l 707 357 q 760 229 707 282 q 886 176 813 176 q 1015 233 964 176 q 1065 371 1065 290 l 1065 710 l 1240 710 l 1240 357 q 1136 105 1240 210 q 886 0 1032 0 q 619 122 726 0 q 354 0 514 0 q 103 105 207 0 q 0 357 0 210 l 0 710 z "},"x":{"ha":851,"x_min":0,"x_max":810,"o":"m 607 0 l 453 267 l 372 267 q 247 214 299 267 q 194 88 194 161 l 194 0 l 19 0 l 19 88 q 63 259 19 179 q 185 388 107 339 l 0 708 l 203 708 l 357 440 q 467 442 365 442 q 498 455 485 442 q 511 488 511 468 l 511 708 l 686 708 l 686 488 q 619 329 686 394 l 810 0 l 607 0 z "},"y":{"ha":756,"x_min":0,"x_max":714,"o":"m 360 0 l 193 0 l 193 174 l 360 174 q 515 267 464 174 l 219 267 q 65 331 129 267 q 0 486 0 396 l 0 708 l 175 708 l 175 486 q 188 454 175 468 q 219 440 201 440 l 539 440 l 539 708 l 714 708 l 714 353 q 610 103 714 207 q 360 0 506 0 z "},"z":{"ha":706,"x_min":0,"x_max":664,"o":"m 664 0 l 0 0 l 0 222 q 65 377 0 313 q 219 442 129 442 l 421 442 q 463 476 456 442 q 465 536 465 486 l 71 536 l 71 708 l 640 708 l 640 488 q 576 332 640 397 q 421 267 511 267 l 219 267 q 178 233 186 267 q 175 174 175 224 l 664 174 l 664 0 z "},"{":{"ha":542,"x_min":-7,"x_max":483,"o":"m 124 47 q 111 204 124 165 q -7 275 89 276 l -7 439 q 96 481 67 439 q 122 586 119 513 q 124 667 124 603 q 483 990 124 990 l 483 826 q 335 794 378 828 q 288 667 288 758 l 288 621 q 210 357 288 446 q 288 94 288 269 l 288 47 q 335 -79 288 -44 q 483 -112 378 -112 l 483 -276 q 124 47 124 -276 z "},"|":{"ha":254,"x_min":-7,"x_max":157,"o":"m -7 -140 l -7 990 l 157 990 l 157 -140 l -7 -140 z "},"}":{"ha":547,"x_min":-12,"x_max":478,"o":"m 347 621 q 367 494 347 533 q 478 439 396 439 l 478 275 q 374 235 403 276 q 347 129 351 203 q 347 47 347 115 q -12 -276 347 -276 l -12 -112 q 138 -78 93 -112 q 183 47 183 -44 l 183 94 q 261 357 183 269 q 183 621 183 446 l 183 667 q 136 794 183 758 q -12 826 93 826 l -12 990 q 347 667 347 990 l 347 621 z "},"~":{"ha":763,"x_min":-39,"x_max":694,"o":"m 640 828 q 461 735 556 735 q 310 780 399 735 q 197 825 221 825 q 136 785 171 825 q 86 725 111 756 l -39 832 q 61 938 33 915 q 196 986 122 986 q 347 942 258 986 q 458 897 435 897 q 519 936 483 897 q 569 996 544 967 l 694 890 q 640 828 675 868 z "},"Ä":{"ha":764,"x_min":-14,"x_max":661,"o":"m 379 1043 l 379 1207 l 543 1207 l 543 1043 l 379 1043 m 107 1043 l 107 1207 l 271 1207 l 271 1043 l 107 1043 m 389 986 q 661 629 661 951 l 661 -3 l 497 -3 l 497 343 l 150 343 l 150 -3 l -14 -3 l -14 629 q 70 895 -14 800 q 322 990 154 990 l 324 990 l 389 990 l 389 986 m 497 629 q 460 780 497 733 q 322 826 422 826 q 187 780 224 826 q 150 629 150 733 l 150 507 l 497 507 l 497 629 z "},"Å":{"ha":754,"x_min":-14,"x_max":661,"o":"m 288 1046 q 200 1100 235 1057 q 165 1199 165 1143 q 212 1310 165 1264 q 322 1357 258 1357 q 435 1310 389 1357 q 482 1199 482 1264 q 435 1088 482 1133 q 322 1042 389 1042 l 288 1042 l 288 1046 m 389 986 q 661 629 661 951 l 661 -3 l 497 -3 l 497 343 l 150 343 l 150 -3 l -14 -3 l -14 629 q 70 895 -14 800 q 322 990 154 990 l 324 990 l 389 990 l 389 986 m 322 1261 q 279 1243 297 1261 q 261 1199 261 1225 q 279 1156 261 1174 q 322 1138 297 1138 q 367 1156 349 1138 q 385 1199 385 1174 q 367 1243 385 1225 q 322 1261 349 1261 m 497 629 q 460 780 497 733 q 322 826 422 826 q 187 780 224 826 q 150 629 150 733 l 150 507 l 497 507 l 497 629 z "},"Ç":{"ha":710,"x_min":-25,"x_max":651,"o":"m 392 3 l 392 -69 l 390 -71 q 364 -124 388 -103 q 308 -146 340 -146 q 290 -162 290 -146 q 308 -181 290 -181 q 329 -164 317 -181 l 447 -282 q 310 -344 385 -344 q 182 -291 235 -344 q 129 -162 129 -237 q 156 -69 129 -112 q 228 -3 183 -25 l 228 4 q -25 357 -25 51 l -25 629 q 58 893 -25 801 q 314 990 144 990 q 651 615 651 990 l 486 615 q 450 778 486 729 q 314 826 414 826 q 177 780 214 826 q 140 629 140 733 l 140 357 q 175 210 140 254 q 314 161 214 161 q 451 211 414 161 q 486 371 486 257 l 651 371 q 392 3 651 44 z "},"É":{"ha":590,"x_min":-10,"x_max":542,"o":"m 39 999 l 7 1158 q 247 1208 89 1178 q 488 1257 406 1238 l 519 1094 q 39 999 361 1063 m -10 -3 l -10 990 l 542 990 l 542 826 l 156 826 l 156 575 l 472 575 l 472 411 l 156 411 l 156 161 l 542 161 l 542 -3 l -10 -3 z "},"Ñ":{"ha":769,"x_min":-42,"x_max":690,"o":"m 638 1089 q 460 994 554 994 q 307 1040 397 994 q 193 1086 217 1086 q 132 1047 168 1086 q 83 986 107 1017 l -42 1093 q 57 1199 29 1176 q 190 1249 117 1249 q 342 1203 253 1249 q 457 1157 432 1157 q 517 1197 481 1157 q 565 1258 542 1228 l 690 1153 q 638 1089 671 1129 m 497 -3 l 497 629 q 460 780 497 733 q 322 826 422 826 q 187 780 224 826 q 150 629 150 733 l 150 -3 l -14 -3 l -14 629 q 68 893 -14 801 q 322 990 154 990 q 578 893 492 990 q 661 629 661 801 l 661 -3 l 497 -3 z "},"Ö":{"ha":764,"x_min":-22,"x_max":653,"o":"m 365 1036 l 365 1200 l 529 1200 l 529 1036 l 365 1036 m 92 1036 l 92 1200 l 256 1200 l 256 1036 l 92 1036 m 315 -3 q 61 94 147 -3 q -22 357 -22 186 l -22 629 q 60 893 -22 801 q 315 990 146 990 q 571 893 483 990 q 653 629 653 801 l 653 357 q 568 92 653 186 q 315 -3 483 -3 m 489 629 q 454 778 489 733 q 315 826 414 826 q 178 780 215 826 q 142 629 142 733 l 142 357 q 176 210 142 254 q 315 161 215 161 q 454 210 414 161 q 489 357 489 254 l 489 629 z "},"Ü":{"ha":796,"x_min":-14,"x_max":661,"o":"m 378 1036 l 378 1200 l 542 1200 l 542 1036 l 378 1036 m 107 1036 l 107 1200 l 269 1200 l 269 1036 l 107 1036 m 322 -3 q 68 94 154 -3 q -14 357 -14 186 l -14 990 l 150 990 l 150 357 q 185 210 150 254 q 322 161 224 161 q 461 210 422 161 q 497 357 497 254 l 497 990 l 661 990 l 661 357 q 576 92 661 186 q 322 -3 492 -3 z "},"á":{"ha":657,"x_min":-12,"x_max":575,"o":"m 56 711 l 25 871 q 264 920 106 890 q 504 969 422 950 l 536 807 q 56 711 379 775 m 281 -3 q 82 43 157 -3 q -12 219 -12 99 q 82 396 -12 339 q 281 440 157 440 q 407 474 389 440 q 411 497 411 481 q 407 522 411 514 q 281 556 389 556 q 193 547 221 556 q 151 483 150 535 l -12 483 q 281 719 -12 719 q 481 674 406 719 q 575 497 575 617 l 575 219 q 481 43 575 99 q 281 -3 406 -3 m 281 275 q 156 244 176 275 q 151 219 151 236 q 156 192 151 200 q 281 161 175 161 l 344 161 l 344 133 l 281 133 l 281 161 l 289 161 q 411 214 411 161 l 411 292 q 281 275 356 275 z "},"à":{"ha":658,"x_min":-14,"x_max":575,"o":"m 506 711 q 22 807 347 743 l 56 969 q 297 920 138 950 q 536 871 456 890 l 506 711 m 281 -3 q 81 43 157 -3 q -14 219 -14 99 q 81 394 -14 339 q 281 440 157 440 q 407 474 389 440 q 411 497 411 481 q 407 522 411 514 q 281 556 389 556 q 193 547 221 556 q 150 483 149 535 l -14 483 q 281 719 -14 719 q 481 674 404 719 q 575 497 575 617 l 575 219 q 481 43 575 99 q 281 -3 404 -3 m 281 275 q 156 244 175 275 q 150 219 150 236 q 156 192 150 200 q 281 161 175 161 l 344 161 l 344 133 l 281 133 l 281 161 l 289 161 q 411 214 411 161 l 411 292 q 281 275 354 275 z "},"â":{"ha":660,"x_min":-18,"x_max":575,"o":"m 501 696 l 278 808 l 56 696 l -18 842 l 278 993 l 575 842 l 501 696 m 281 -3 q 81 43 157 -3 q -14 219 -14 99 q 81 394 -14 339 q 281 440 157 440 q 407 474 389 440 q 411 497 411 481 q 407 522 411 514 q 281 556 389 556 q 193 547 221 556 q 150 483 149 535 l -14 483 q 281 719 -14 719 q 481 674 404 719 q 575 497 575 617 l 575 219 q 481 43 575 99 q 281 -3 404 -3 m 281 275 q 156 244 175 275 q 150 219 150 236 q 156 192 150 200 q 281 161 175 161 l 344 161 l 344 133 l 281 133 l 281 161 l 289 161 q 411 214 411 161 l 411 292 q 281 275 354 275 z "},"ä":{"ha":657,"x_min":-14,"x_max":575,"o":"m 324 826 l 324 990 l 489 990 l 489 826 l 324 826 m 51 826 l 51 990 l 215 990 l 215 826 l 51 826 m 281 -3 q 81 43 157 -3 q -14 219 -14 99 q 81 394 -14 339 q 281 440 157 440 q 407 474 389 440 q 411 497 411 481 q 407 522 411 514 q 281 556 389 556 q 193 547 221 556 q 150 483 149 535 l -14 483 q 281 719 -14 719 q 481 674 404 719 q 575 497 575 617 l 575 219 q 481 43 575 99 q 281 -3 404 -3 m 281 275 q 156 244 175 275 q 150 219 150 236 q 156 192 150 200 q 281 161 175 161 l 344 161 l 344 133 l 281 133 l 281 161 l 289 161 q 411 214 411 161 l 411 292 q 281 275 354 275 z "},"ã":{"ha":706,"x_min":-85,"x_max":649,"o":"m 594 828 q 415 735 510 735 q 263 780 353 735 q 150 825 174 825 q 89 785 126 825 q 39 725 64 756 l -85 832 q 15 938 -12 915 q 150 986 76 986 q 301 942 213 986 q 414 897 389 897 q 474 936 439 897 q 522 996 499 967 l 649 892 q 594 828 629 868 m 279 -3 q 81 43 156 -3 q -14 219 -14 99 q 81 394 -14 338 q 279 440 157 440 q 407 474 389 440 q 411 497 411 481 q 407 522 411 514 q 279 556 389 556 q 192 547 219 556 q 150 483 149 535 l -14 483 q 279 719 -14 719 q 479 674 404 719 q 575 497 575 617 l 575 219 q 479 43 575 99 q 279 -3 404 -3 m 279 275 q 154 244 175 275 q 150 219 150 236 q 156 192 150 200 q 279 161 174 161 l 344 161 l 344 133 l 279 133 l 279 161 l 288 161 q 411 214 411 161 l 411 292 q 279 275 351 275 z "},"å":{"ha":664,"x_min":-11,"x_max":578,"o":"m 247 763 q 158 819 193 775 q 122 921 122 864 q 169 1035 122 988 q 283 1082 217 1082 q 397 1035 350 1082 q 444 921 444 988 q 397 807 444 854 q 283 760 350 760 l 247 760 l 247 763 m 392 708 q 578 497 578 668 l 578 -3 l 283 -3 q 83 43 160 -3 q -11 219 -11 99 q 83 396 -11 339 q 283 440 160 440 l 414 440 l 414 497 q 410 522 414 514 q 283 556 392 556 q 194 547 222 556 q 153 483 151 535 l -11 483 q 285 719 -11 719 l 392 719 l 392 708 m 269 963 l 269 990 l 283 990 l 283 963 q 240 921 240 963 q 283 878 240 878 q 326 921 326 878 q 269 963 326 963 m 414 275 l 283 275 q 157 243 175 275 q 153 219 153 236 l 153 207 l 125 207 l 125 219 l 153 219 q 157 193 153 201 q 283 161 175 161 l 414 161 l 414 275 z "},"ç":{"ha":681,"x_min":-28,"x_max":635,"o":"m 392 3 l 392 -69 l 390 -71 q 364 -124 388 -101 q 308 -146 340 -146 q 290 -162 290 -146 q 308 -181 290 -181 q 331 -165 315 -181 l 447 -282 q 310 -344 385 -344 q 181 -292 233 -344 q 129 -162 129 -239 q 226 -3 129 -53 l 226 3 q -28 357 -28 47 q 56 624 -28 529 q 310 719 140 719 q 635 479 569 719 l 464 479 q 310 556 424 556 q 171 506 211 556 q 136 357 136 461 q 171 210 136 254 q 310 161 211 161 q 464 236 425 161 l 635 236 q 392 3 579 36 z "},"é":{"ha":743,"x_min":-28,"x_max":646,"o":"m 565 807 q 85 711 406 774 l 51 871 q 533 969 213 901 l 565 807 m 646 -3 l 308 -3 q 54 94 140 -3 q -28 357 -28 186 q 53 621 -28 529 q 308 719 139 719 q 564 621 478 719 q 646 357 646 529 l 646 275 l 142 275 q 308 161 164 161 l 646 161 l 646 -3 m 482 424 q 425 532 472 500 q 313 561 388 557 l 313 561 q 142 424 163 561 l 482 424 z "},"è":{"ha":742,"x_min":-28,"x_max":646,"o":"m 567 871 l 535 711 q 53 807 376 743 l 86 969 q 326 920 168 950 q 567 871 485 890 m 646 -3 l 310 -3 q 54 93 142 -3 q -28 357 -28 186 q 56 624 -28 529 q 310 719 140 719 q 564 621 478 719 q 646 357 646 529 l 646 275 l 142 275 q 310 161 165 161 l 646 161 l 646 -3 m 482 424 q 425 532 472 500 q 313 561 388 557 l 313 561 q 142 424 163 561 l 482 424 z "},"ê":{"ha":749,"x_min":-26,"x_max":647,"o":"m 607 842 l 533 696 l 310 808 l 86 696 l 13 842 l 310 993 l 607 842 m 647 -3 l 310 -3 q 56 94 142 -3 q -26 357 -26 186 q 58 624 -26 529 q 310 719 142 719 q 565 622 479 719 q 647 357 647 529 l 647 275 l 143 275 q 310 161 167 161 l 647 161 l 647 -3 m 483 424 q 426 532 474 500 q 314 561 389 557 l 314 561 q 143 424 164 561 l 483 424 z "},"ë":{"ha":738,"x_min":-32,"x_max":643,"o":"m 514 826 l 351 826 l 351 990 l 514 990 l 514 826 m 243 826 l 79 826 l 79 990 l 243 990 l 243 826 m 643 -3 l 306 -3 q 50 93 138 -3 q -32 357 -32 186 q 50 622 -32 529 q 306 719 138 719 q 561 622 475 719 q 643 357 643 529 l 643 275 l 139 275 q 306 161 161 161 l 643 161 l 643 -3 m 479 424 q 422 532 469 500 q 310 561 385 557 l 310 561 q 139 424 160 561 l 479 424 z "},"í":{"ha":468,"x_min":-110,"x_max":401,"o":"m -79 738 l -110 897 q 129 946 -29 917 q 371 994 288 975 l 401 832 q -79 738 244 800 m -14 263 l -14 719 l 150 719 l 150 263 q 221 172 150 194 q 360 161 260 161 l 360 -3 q -14 263 -14 -3 z "},"ì":{"ha":472,"x_min":-136,"x_max":376,"o":"m 346 738 q -136 832 188 769 l -104 994 q 138 946 -21 975 q 376 897 296 917 l 346 738 m -14 263 l -14 719 l 150 719 l 150 263 q 221 172 150 194 q 361 161 261 161 l 361 -3 q -14 263 -14 -3 z "},"î":{"ha":481,"x_min":-231,"x_max":364,"o":"m 290 696 l 67 808 l -157 696 l -231 842 l 67 993 l 364 842 l 290 696 m -14 263 l -14 719 l 150 719 l 150 263 q 221 172 150 194 q 361 161 261 161 l 361 -3 q -14 263 -14 -3 z "},"ï":{"ha":438,"x_min":-22,"x_max":354,"o":"m -22 826 l -22 990 l 142 990 l 142 826 l -22 826 m -22 263 l -22 719 l 142 719 l 142 263 q 214 172 142 194 q 354 161 253 161 l 354 -3 q -22 263 -22 -3 z "},"ñ":{"ha":772,"x_min":-40,"x_max":693,"o":"m 639 828 q 460 735 554 735 q 308 780 397 735 q 196 825 219 825 q 135 785 169 825 q 86 725 110 756 l -40 832 q 60 938 32 915 q 194 986 121 986 q 345 942 257 986 q 457 897 433 897 q 518 936 482 897 q 568 996 543 967 l 693 890 q 639 828 674 868 m 501 -3 l 501 357 q 467 506 501 461 q 328 556 428 556 q 190 506 229 556 q 156 357 156 461 l 156 -3 l -8 -3 l -8 357 q 76 624 -8 529 q 328 719 160 719 q 582 624 497 719 q 667 357 667 529 l 667 -3 l 501 -3 z "},"ó":{"ha":750,"x_min":-29,"x_max":644,"o":"m 78 711 l 44 871 q 285 920 126 890 q 526 969 444 950 l 558 807 q 78 711 401 775 m 372 715 q 644 357 644 679 q 563 93 644 186 q 307 -3 475 -3 q 53 94 139 -3 q -29 357 -29 186 q 55 624 -29 529 q 307 719 139 719 l 372 719 l 372 715 m 307 556 q 169 506 208 556 q 135 357 135 461 q 169 210 135 254 q 307 161 208 161 l 376 161 l 376 133 l 307 133 l 307 161 l 308 161 q 446 210 407 161 q 482 357 482 254 q 446 506 482 461 q 307 556 407 556 z "},"ò":{"ha":749,"x_min":-29,"x_max":644,"o":"m 539 711 q 58 807 381 743 l 90 969 q 331 920 172 950 q 572 871 490 890 l 539 711 m 372 715 q 644 357 644 679 q 563 93 644 186 q 307 -3 475 -3 q 53 94 139 -3 q -29 357 -29 186 q 55 624 -29 529 q 307 719 139 719 l 372 719 l 372 715 m 307 556 q 169 506 208 556 q 135 357 135 461 q 169 210 135 254 q 307 161 208 161 l 376 161 l 376 133 l 307 133 l 307 161 l 308 161 q 446 210 407 161 q 481 357 481 254 q 446 506 481 461 q 307 556 406 556 z "},"ô":{"ha":751,"x_min":-29,"x_max":644,"o":"m 525 696 l 301 808 l 79 696 l 6 842 l 301 993 l 599 842 l 525 696 m 374 715 q 644 357 644 679 q 563 94 644 186 q 308 -3 476 -3 q 53 93 140 -3 q -29 357 -29 186 q 55 624 -29 529 q 308 719 139 719 l 374 719 l 374 715 m 308 556 q 169 506 210 556 q 135 357 135 461 q 169 210 135 254 q 308 161 210 161 l 378 161 l 378 133 l 308 133 l 308 161 l 310 161 q 447 210 408 161 q 482 357 482 254 q 447 506 482 461 q 308 556 407 556 z "},"ö":{"ha":749,"x_min":-31,"x_max":644,"o":"m 358 826 l 358 990 l 522 990 l 522 826 l 358 826 m 86 826 l 86 990 l 250 990 l 250 826 l 86 826 m 372 715 q 644 357 644 679 q 561 94 644 186 q 307 -3 475 -3 q 51 93 139 -3 q -31 357 -31 186 q 51 622 -31 529 q 307 719 139 719 l 372 719 l 372 715 m 307 556 q 168 506 208 556 q 133 357 133 461 q 168 210 133 254 q 307 161 208 161 l 376 161 l 376 133 l 307 133 l 307 161 l 310 161 q 446 210 407 161 q 481 357 481 254 q 446 506 481 461 q 307 556 406 556 z "},"õ":{"ha":757,"x_min":-67,"x_max":667,"o":"m 613 828 q 433 735 529 735 q 282 780 371 735 q 169 825 193 825 q 108 785 144 825 q 58 725 83 756 l -67 832 q 33 938 6 915 q 169 986 96 986 q 319 942 231 986 q 431 897 407 897 q 492 936 456 897 q 542 996 517 967 l 667 890 q 613 828 647 868 m 369 715 q 642 357 642 679 q 557 92 642 186 q 303 -3 472 -3 q 49 94 135 -3 q -33 357 -33 186 q 51 624 -33 529 q 303 719 135 719 l 369 719 l 369 715 m 303 556 q 165 506 204 556 q 131 357 131 461 q 165 210 131 254 q 303 161 204 161 l 372 161 l 372 133 l 303 133 l 303 161 l 306 161 q 442 210 403 161 q 478 357 478 254 q 442 506 478 461 q 303 556 403 556 z "},"ú":{"ha":750,"x_min":-21,"x_max":654,"o":"m 85 738 l 51 897 q 533 994 210 926 l 565 832 q 85 738 407 800 m 318 -3 q 64 92 149 -3 q -21 357 -21 186 l -21 719 l 143 719 l 143 357 q 179 210 143 254 q 318 161 218 161 q 456 210 417 161 q 490 357 490 254 l 490 719 l 654 719 l 654 357 q 572 94 654 186 q 318 -3 486 -3 z "},"ù":{"ha":754,"x_min":-19,"x_max":656,"o":"m 549 738 q 65 832 390 769 l 99 994 q 340 946 181 975 q 579 897 499 917 l 549 738 m 319 -3 q 65 92 150 -3 q -19 357 -19 186 l -19 719 l 144 719 l 144 357 q 181 210 144 254 q 319 161 219 161 q 457 210 418 161 q 492 357 492 254 l 492 719 l 656 719 l 656 357 q 574 94 656 186 q 319 -3 486 -3 z "},"û":{"ha":751,"x_min":-18,"x_max":657,"o":"m 546 722 l 322 835 l 100 722 l 26 868 l 322 1018 l 619 868 l 546 722 m 319 -3 q 64 94 150 -3 q -18 357 -18 186 l -18 719 l 146 719 l 146 357 q 181 210 146 254 q 319 161 219 161 q 457 210 418 161 q 493 357 493 254 l 493 719 l 657 719 l 657 357 q 572 92 657 186 q 319 -3 488 -3 z "},"ü":{"ha":750,"x_min":-7,"x_max":667,"o":"m 379 826 l 379 990 l 543 990 l 543 826 l 379 826 m 108 826 l 108 990 l 271 990 l 271 826 l 108 826 m 331 -3 q 75 93 163 -3 q -7 357 -7 186 l -7 719 l 157 719 l 157 357 q 192 210 157 254 q 331 161 232 161 q 469 210 429 161 q 504 357 504 254 l 504 719 l 667 719 l 667 357 q 585 94 667 186 q 331 -3 499 -3 z "},"°":{"ha":390,"x_min":-10,"x_max":306,"o":"m 113 679 q 25 735 60 692 q -10 833 -10 778 q 36 944 -10 899 q 147 990 82 990 q 259 944 213 990 q 306 833 306 899 q 259 722 306 768 q 147 675 213 675 l 113 675 l 113 679 m 147 894 q 104 876 122 894 q 86 833 86 858 q 104 789 86 807 q 147 771 122 771 q 192 789 174 771 q 210 833 210 807 q 192 876 210 858 q 147 894 174 894 z "},"¢":{"ha":717,"x_min":-7,"x_max":656,"o":"m 408 3 l 408 -140 l 244 -140 l 244 4 q -7 358 -7 51 q 244 711 -7 665 l 244 857 l 408 857 l 408 713 q 656 479 600 681 l 483 479 q 408 546 461 528 l 408 171 q 485 236 460 188 l 656 236 q 408 3 600 36 m 244 543 q 157 358 157 510 q 244 174 157 206 l 244 543 z "},"£":{"ha":376,"x_min":0,"x_max":0,"o":""},"§":{"ha":679,"x_min":-14,"x_max":603,"o":"m -12 315 q 71 506 -4 438 q -14 701 -14 578 q 68 917 -14 843 q 294 990 150 990 q 519 917 439 990 q 603 688 603 839 l 439 688 q 404 801 440 771 q 294 826 374 826 q 185 803 215 826 q 150 701 150 775 q 210 608 150 642 q 321 569 231 597 q 515 481 457 528 q 603 286 603 411 q 515 65 603 142 q 603 -129 603 -6 q 521 -344 603 -271 q 294 -418 439 -418 q 69 -344 149 -418 q -14 -115 -14 -267 l 150 -115 q 185 -228 150 -197 q 294 -254 215 -254 q 406 -228 374 -254 q 439 -129 439 -203 q 381 -40 439 -72 q 274 -4 361 -29 q 75 88 135 38 q -14 288 -14 158 l -14 315 l -12 315 m 150 288 q 210 194 150 235 q 324 158 265 158 q 408 194 378 158 q 439 286 439 229 q 379 378 439 338 q 265 414 325 414 q 181 379 211 414 q 150 288 150 344 z "},"•":{"ha":376,"x_min":0,"x_max":0,"o":""},"¶":{"ha":376,"x_min":0,"x_max":0,"o":""},"ß":{"ha":753,"x_min":-15,"x_max":664,"o":"m 524 550 q 664 286 664 485 q 594 74 664 150 q 392 -3 525 -3 l 196 -3 l 196 161 l 392 161 q 478 189 457 161 q 500 286 500 217 q 478 383 500 356 q 392 411 457 411 l 196 411 l 196 575 q 329 592 301 575 q 364 701 364 614 q 342 798 364 769 q 256 826 319 826 q 170 798 192 826 q 149 701 149 769 l 149 -140 l -15 -140 l -15 701 q 53 914 -15 838 q 256 990 122 990 q 459 914 390 990 q 528 701 528 838 q 503 558 528 619 l 524 551 l 524 550 z "},"®":{"ha":1344,"x_min":-25,"x_max":1238,"o":"m 757 969 q 1101 748 965 918 q 1238 357 1238 578 q 1052 -89 1238 96 q 606 -274 867 -274 q 160 -88 344 -274 q -25 357 -25 97 q 160 803 -25 618 q 606 988 344 988 l 757 988 l 757 969 m 606 -110 q 935 27 799 -110 q 1072 357 1072 164 q 935 688 1072 550 q 606 825 799 825 q 275 688 413 825 q 138 357 138 550 q 275 28 138 165 q 606 -110 413 -110 m 451 504 q 822 718 486 718 l 822 554 q 683 542 722 554 q 611 453 611 521 l 611 -4 l 447 -4 l 447 504 l 451 504 z "},"©":{"ha":1351,"x_min":-31,"x_max":1231,"o":"m 751 969 q 1095 747 960 918 q 1231 357 1231 576 q 1045 -88 1231 97 q 600 -274 860 -274 q 154 -89 339 -274 q -31 357 -31 96 q 154 803 -31 618 q 600 988 339 988 l 751 988 l 751 969 m 600 -110 q 930 27 793 -110 q 1067 357 1067 164 q 930 688 1067 550 q 600 825 793 825 q 270 688 407 825 q 133 357 133 550 q 270 27 133 164 q 600 -110 407 -110 m 608 -3 q 354 94 442 -3 q 272 357 272 186 q 354 621 272 529 q 608 719 440 719 q 935 479 871 719 l 764 479 q 608 556 725 556 q 471 506 510 556 q 436 357 436 461 q 471 210 436 254 q 608 161 510 161 q 764 236 725 161 l 935 236 q 608 -3 871 -3 z "},"™":{"ha":1431,"x_min":-21,"x_max":1313,"o":"m 1040 986 q 1313 629 1313 951 l 1313 338 l 1149 338 l 1149 629 q 1119 768 1149 724 q 1003 825 1086 819 l 1003 338 l 838 338 l 838 826 l 693 826 l 693 338 l 528 338 l 528 990 l 1040 990 l 1040 986 m 315 826 l 315 338 l 151 338 l 151 826 l -21 826 l -21 990 l 489 990 l 489 826 l 315 826 z "},"´":{"ha":567,"x_min":-26,"x_max":488,"o":"m 4 711 l -26 871 q 213 920 54 890 q 454 969 372 950 l 488 807 q 4 711 328 775 z "},"¨":{"ha":515,"x_min":-18,"x_max":419,"o":"m 254 826 l 254 990 l 419 990 l 419 826 l 254 826 m -18 826 l -18 990 l 146 990 l 146 826 l -18 826 z "},"Æ":{"ha":1097,"x_min":-14,"x_max":1047,"o":"m 497 -3 l 497 343 l 150 343 l 150 -3 l -14 -3 l -14 629 q 68 893 -14 801 q 324 990 156 990 l 1047 990 l 1047 826 l 661 826 l 661 575 l 979 575 l 979 411 l 661 411 l 661 161 l 1047 161 l 1047 -3 l 497 -3 m 497 826 l 324 826 q 185 778 225 826 q 150 629 150 733 l 150 507 l 497 507 l 497 826 z "},"Ø":{"ha":756,"x_min":-28,"x_max":672,"o":"m 613 843 q 660 629 660 758 l 660 357 q 575 92 660 186 q 321 -3 490 -3 q 154 29 226 -3 l 115 -42 l -28 39 l 31 144 q -15 357 -15 228 l -15 629 q 69 895 -15 800 q 321 990 153 990 q 489 957 419 990 l 528 1029 l 672 949 l 613 843 m 149 353 l 408 814 q 321 826 372 826 q 185 780 222 826 q 149 629 149 733 l 149 353 m 496 635 l 235 174 q 321 161 269 161 q 460 210 421 161 q 496 357 496 254 l 496 635 z "},"±":{"ha":376,"x_min":0,"x_max":0,"o":""},"¥":{"ha":376,"x_min":0,"x_max":0,"o":""},"µ":{"ha":376,"x_min":0,"x_max":0,"o":""},"ª":{"ha":376,"x_min":0,"x_max":0,"o":""},"º":{"ha":376,"x_min":0,"x_max":0,"o":""},"æ":{"ha":1151,"x_min":-22,"x_max":1076,"o":"m 272 -3 q -22 218 -22 -3 q 72 394 -22 338 q 272 439 147 439 l 401 439 l 401 497 q 399 521 401 514 q 272 556 381 556 q 189 549 213 556 q 143 483 140 533 l -22 483 q 272 719 -22 719 q 507 646 432 719 q 739 719 593 719 q 993 622 907 719 q 1076 358 1076 531 l 1076 276 l 572 276 q 739 161 596 161 l 1076 161 l 1076 -3 l 272 -3 m 539 413 q 739 583 564 583 l 739 582 l 739 556 l 682 556 l 682 583 q 849 561 801 583 q 938 413 922 526 l 539 413 m 407 275 l 272 275 q 146 243 165 275 q 142 218 142 236 q 192 167 142 178 q 272 161 214 161 l 440 161 q 407 275 415 211 z "},"ø":{"ha":746,"x_min":-22,"x_max":664,"o":"m 610 564 q 653 357 653 483 q 568 92 653 186 q 315 -3 483 -3 q 149 29 217 -3 l 104 -21 l -15 94 l 28 140 q -22 357 -22 225 q 62 624 -22 529 q 315 719 146 719 q 494 681 419 719 l 539 733 l 664 625 l 610 564 m 315 556 q 176 506 215 556 q 142 357 142 461 q 147 279 142 308 l 379 549 q 315 556 351 556 m 315 160 l 315 161 q 454 210 414 161 q 489 357 489 254 q 486 419 489 393 l 264 164 q 311 160 285 161 l 315 160 z "},"¿":{"ha":376,"x_min":0,"x_max":0,"o":""},"¡":{"ha":376,"x_min":0,"x_max":0,"o":""},"¬":{"ha":376,"x_min":0,"x_max":0,"o":""},"ƒ":{"ha":429,"x_min":-224,"x_max":361,"o":"m 333 826 q 213 813 253 826 q 151 725 151 789 l 151 718 l 361 718 l 361 554 l 151 554 l 151 -17 q -224 -282 151 -282 l -224 -118 l -196 -118 q -75 -104 -115 -118 q -14 -17 -14 -81 l -14 725 q 361 990 -14 990 l 361 826 l 333 826 z "},"«":{"ha":874,"x_min":-24,"x_max":804,"o":"m 688 22 l 353 357 l 688 692 l 804 576 l 585 357 l 804 138 l 688 22 m 311 22 l -24 357 l 311 692 l 428 576 l 208 357 l 428 138 l 311 22 z "},"»":{"ha":869,"x_min":-19,"x_max":808,"o":"m 474 22 l 357 138 l 576 357 l 357 576 l 474 692 l 808 357 l 474 22 m 97 22 l -19 138 l 200 357 l -19 576 l 97 692 l 432 357 l 97 22 z "},"…":{"ha":811,"x_min":-7,"x_max":707,"o":"m 542 -3 l 542 161 l 707 161 l 707 -3 l 542 -3 m 267 -3 l 267 161 l 432 161 l 432 -3 l 267 -3 m -7 -3 l -7 161 l 157 161 l 157 -3 l -7 -3 z "}," ":{"ha":376,"x_min":0,"x_max":0,"o":""},"À":{"ha":771,"x_min":-21,"x_max":654,"o":"m 547 986 q 67 1081 389 1017 l 97 1243 q 338 1194 179 1224 q 578 1146 497 1165 l 547 986 m 382 986 q 654 629 654 951 l 654 -3 l 490 -3 l 490 343 l 143 343 l 143 -3 l -21 -3 l -21 629 q 61 893 -21 801 q 317 990 147 990 l 318 990 l 382 990 l 382 986 m 490 629 q 456 778 490 733 q 317 826 415 826 q 180 780 217 826 q 143 629 143 733 l 143 507 l 490 507 l 490 629 z "},"Ã":{"ha":778,"x_min":-50,"x_max":683,"o":"m 629 1103 q 450 1010 546 1010 q 299 1054 388 1010 q 185 1099 210 1099 q 125 1060 161 1099 q 75 999 100 1029 l -50 1106 q 50 1211 22 1189 q 186 1261 113 1261 q 335 1216 247 1261 q 449 1171 424 1171 q 510 1211 472 1171 q 558 1271 535 1240 l 683 1165 q 629 1103 664 1142 m 389 986 q 660 629 660 951 l 660 -3 l 496 -3 l 496 343 l 149 343 l 149 -3 l -15 -3 l -15 629 q 68 893 -15 801 q 322 990 154 990 l 324 990 l 389 990 l 389 986 m 496 629 q 461 778 496 733 q 322 826 422 826 q 183 778 224 826 q 149 629 149 733 l 149 507 l 496 507 l 496 629 z "},"Õ":{"ha":771,"x_min":-51,"x_max":682,"o":"m 628 1103 q 449 1008 544 1008 q 297 1053 386 1008 q 185 1099 208 1099 q 124 1060 160 1099 q 74 999 99 1029 l -51 1106 q 47 1213 19 1190 q 182 1263 108 1263 q 334 1217 244 1263 q 447 1171 424 1171 q 508 1210 472 1171 q 556 1271 532 1240 l 682 1165 q 628 1103 663 1142 m 321 -3 q 68 92 153 -3 q -17 357 -17 186 l -17 629 q 67 893 -17 801 q 321 990 153 990 q 576 893 490 990 q 658 629 658 801 l 658 357 q 576 94 658 186 q 321 -3 490 -3 m 494 629 q 460 778 494 733 q 321 826 421 826 q 185 780 222 826 q 147 629 147 733 l 147 357 q 183 210 147 254 q 321 161 222 161 q 460 210 421 161 q 494 357 494 254 l 494 629 z "},"Œ":{"ha":1089,"x_min":-24,"x_max":1039,"o":"m 486 -3 l 486 32 q 314 -3 415 -3 q 60 94 146 -3 q -24 357 -24 186 l -24 629 q 58 893 -24 801 q 314 990 144 990 q 486 954 415 990 l 486 990 l 1039 990 l 1039 826 l 651 826 l 651 575 l 971 575 l 971 411 l 651 411 l 651 161 l 1039 161 l 1039 -3 l 486 -3 m 486 629 q 451 778 486 733 q 314 826 413 826 q 177 780 214 826 q 140 629 140 733 l 140 357 q 175 210 140 254 q 314 161 214 161 q 451 210 413 161 q 486 357 486 254 l 486 629 z "},"œ":{"ha":1260,"x_min":-26,"x_max":1158,"o":"m 821 -3 q 565 94 654 -3 q 311 -3 478 -3 q 56 93 143 -3 q -26 357 -26 186 q 58 624 -26 529 q 311 719 142 719 q 565 621 479 719 q 821 719 653 719 q 1076 622 989 719 q 1158 357 1158 529 l 1158 275 l 654 275 q 821 161 678 161 l 1158 161 l 1158 -3 l 821 -3 m 821 556 q 654 439 678 556 l 989 439 q 821 556 964 556 m 311 556 q 172 506 213 556 q 136 357 136 461 q 172 210 136 254 q 311 161 211 161 q 449 210 410 161 q 483 357 483 254 q 449 506 483 461 q 311 556 410 556 z "},"–":{"ha":565,"x_min":147,"x_max":524,"o":"m 147 267 l 147 440 l 524 440 l 524 267 l 147 267 z "},"—":{"ha":1121,"x_min":-14,"x_max":1000,"o":"m -14 275 l -14 439 l 1000 439 l 1000 275 l -14 275 z "},"“":{"ha":532,"x_min":-12,"x_max":424,"o":"m 260 624 l 260 990 l 424 990 l 424 624 l 260 624 m -12 624 l -12 990 l 151 990 l 151 624 l -12 624 z "},"”":{"ha":532,"x_min":-12,"x_max":424,"o":"m 260 624 l 260 990 l 424 990 l 424 624 l 260 624 m -12 624 l -12 990 l 151 990 l 151 624 l -12 624 z "},"‘":{"ha":260,"x_min":-12,"x_max":151,"o":"m -12 624 l -12 990 l 151 990 l 151 624 l -12 624 z "},"’":{"ha":260,"x_min":-12,"x_max":151,"o":"m -12 624 l -12 990 l 151 990 l 151 624 l -12 624 z "},"÷":{"ha":376,"x_min":0,"x_max":0,"o":""},"ÿ":{"ha":764,"x_min":-11,"x_max":664,"o":"m 381 826 l 381 990 l 544 990 l 544 826 l 381 826 m 108 826 l 108 990 l 272 990 l 272 826 l 108 826 m 325 -276 l 57 -276 l 57 -112 l 325 -112 q 496 -49 474 -112 q 500 -8 500 -36 l 500 -3 l 325 -3 q 71 94 157 -3 q -11 357 -11 186 l -11 719 l 153 719 l 153 357 q 188 210 153 254 q 325 161 226 161 l 500 161 l 500 719 l 664 719 l 664 -8 q 558 -221 664 -153 q 325 -276 472 -276 z "},"Ÿ":{"ha":761,"x_min":-10,"x_max":665,"o":"m 379 1049 l 379 1213 l 543 1213 l 543 1049 l 379 1049 m 108 1049 l 108 1213 l 271 1213 l 271 1049 l 108 1049 m 410 351 l 410 -3 l 244 -3 l 244 351 q -10 706 -10 394 l -10 990 l 154 990 l 154 706 q 189 557 154 601 q 326 507 228 507 q 465 557 426 507 q 501 706 501 601 l 501 990 l 665 990 l 665 706 q 410 351 665 394 z "},"¤":{"ha":376,"x_min":0,"x_max":0,"o":""},"‹":{"ha":497,"x_min":-24,"x_max":428,"o":"m 311 22 l -24 357 l 311 692 l 428 576 l 208 357 l 428 138 l 311 22 z "},"›":{"ha":488,"x_min":-25,"x_max":426,"o":"m 92 22 l -25 138 l 194 357 l -25 576 l 92 692 l 426 357 l 92 22 z "},"‡":{"ha":376,"x_min":0,"x_max":0,"o":""},"·":{"ha":376,"x_min":0,"x_max":0,"o":""},"‚":{"ha":376,"x_min":0,"x_max":0,"o":""},"„":{"ha":532,"x_min":-12,"x_max":424,"o":"m 260 624 l 260 990 l 424 990 l 424 624 l 260 624 m -12 624 l -12 990 l 151 990 l 151 624 l -12 624 z "},"‰":{"ha":1588,"x_min":-14,"x_max":1533,"o":"m 1344 471 q 1533 235 1533 450 q 1476 60 1533 124 q 1310 -3 1419 -3 q 1142 60 1200 -3 q 1085 235 1085 124 q 1142 409 1085 346 q 1310 472 1200 472 l 1311 472 l 1344 472 l 1344 471 m 846 471 q 1036 235 1036 450 q 978 60 1036 124 q 811 -3 921 -3 q 644 60 701 -3 q 588 235 588 124 q 644 409 588 346 q 811 472 701 472 l 813 472 l 846 472 l 846 471 m 363 -118 l 213 -57 l 644 994 l 797 932 l 363 -118 m 246 921 q 435 686 435 901 q 378 511 435 574 q 210 449 321 449 q 43 511 100 449 q -14 686 -14 574 q 43 860 -14 797 q 210 922 100 922 l 246 922 l 246 921 m 1310 313 q 1254 292 1267 313 q 1244 235 1244 278 q 1265 164 1244 176 q 1336 156 1278 156 l 1336 128 l 1310 128 l 1310 156 q 1364 175 1351 156 q 1374 235 1374 189 q 1365 292 1374 278 q 1310 313 1353 313 m 811 313 q 756 292 768 313 q 747 235 747 278 q 767 164 747 176 q 839 156 779 156 l 839 128 l 811 128 l 811 156 q 867 175 854 156 q 876 235 876 189 q 867 292 876 278 q 811 313 854 313 m 210 763 q 156 743 168 763 q 146 686 146 729 q 167 615 146 628 q 238 607 179 607 l 238 579 l 210 579 l 211 607 q 265 624 253 607 q 276 686 276 640 q 267 743 276 729 q 210 763 254 763 z "},"Â":{"ha":771,"x_min":-7,"x_max":667,"o":"m 553 988 l 329 1100 l 107 988 l 32 1133 l 329 1283 l 626 1133 l 553 988 m 394 986 q 667 629 667 951 l 667 -3 l 504 -3 l 504 343 l 157 343 l 157 -3 l -7 -3 l -7 629 q 75 893 -7 801 q 329 990 161 990 l 331 990 l 394 990 l 394 986 m 504 629 q 467 780 504 733 q 329 826 429 826 q 194 780 231 826 q 157 629 157 733 l 157 507 l 504 507 l 504 629 z "},"Ê":{"ha":600,"x_min":-39,"x_max":556,"o":"m 482 1010 l 258 1122 l 36 1010 l -39 1156 l 258 1306 l 556 1156 l 482 1010 m -12 -3 l -12 990 l 538 990 l 538 826 l 151 826 l 151 575 l 469 575 l 469 411 l 151 411 l 151 161 l 538 161 l 538 -3 l -12 -3 z "},"Á":{"ha":771,"x_min":-7,"x_max":667,"o":"m 97 999 l 67 1158 q 306 1208 147 1178 q 547 1257 464 1238 l 578 1094 q 97 999 421 1063 m 394 986 q 667 629 667 951 l 667 -3 l 504 -3 l 504 343 l 157 343 l 157 -3 l -7 -3 l -7 629 q 75 893 -7 801 q 329 990 161 990 l 331 990 l 394 990 l 394 986 m 504 629 q 467 780 504 733 q 329 826 429 826 q 194 780 231 826 q 157 629 157 733 l 157 507 l 504 507 l 504 629 z "},"Ë":{"ha":610,"x_min":-10,"x_max":542,"o":"m 321 1049 l 321 1213 l 485 1213 l 485 1049 l 321 1049 m 49 1049 l 49 1213 l 213 1213 l 213 1049 l 49 1049 m -10 -3 l -10 990 l 542 990 l 542 826 l 156 826 l 156 575 l 472 575 l 472 411 l 156 411 l 156 161 l 542 161 l 542 -3 l -10 -3 z "},"È":{"ha":614,"x_min":-10,"x_max":542,"o":"m 488 1011 q 7 1107 331 1043 l 39 1269 q 279 1220 121 1250 q 519 1172 438 1190 l 488 1011 m -10 -3 l -10 990 l 542 990 l 542 826 l 156 826 l 156 575 l 472 575 l 472 411 l 156 411 l 156 161 l 542 161 l 542 -3 l -10 -3 z "},"Í":{"ha":285,"x_min":-197,"x_max":315,"o":"m -167 999 l -197 1158 q 42 1208 -117 1178 q 282 1257 200 1238 l 315 1094 q -167 999 157 1061 m -14 -3 l -14 990 l 150 990 l 150 -3 l -14 -3 z "},"Î":{"ha":288,"x_min":-229,"x_max":365,"o":"m 292 996 l 68 1108 l -156 996 l -229 1143 l 68 1293 l 365 1143 l 292 996 m -12 -3 l -12 990 l 151 990 l 151 -3 l -12 -3 z "},"Ï":{"ha":281,"x_min":-153,"x_max":283,"o":"m 119 1042 l 119 1206 l 283 1206 l 283 1042 l 119 1042 m -153 1042 l -153 1206 l 11 1206 l 11 1042 l -153 1042 m -17 -3 l -17 990 l 147 990 l 147 -3 l -17 -3 z "},"Ì":{"ha":272,"x_min":-182,"x_max":332,"o":"m 299 999 q -182 1094 140 1031 l -151 1256 q 332 1158 8 1226 l 299 999 m -11 -3 l -11 990 l 153 990 l 153 -3 l -11 -3 z "},"Ó":{"ha":764,"x_min":-22,"x_max":653,"o":"m 94 985 l 64 1144 q 544 1240 221 1176 l 575 1079 q 94 985 418 1047 m 315 -3 q 61 94 147 -3 q -22 357 -22 186 l -22 629 q 60 893 -22 801 q 315 990 146 990 q 571 893 483 990 q 653 629 653 801 l 653 357 q 568 92 653 186 q 315 -3 483 -3 m 489 629 q 454 778 489 733 q 315 826 414 826 q 178 780 215 826 q 142 629 142 733 l 142 357 q 176 210 142 254 q 315 161 215 161 q 454 210 414 161 q 489 357 489 254 l 489 629 z "},"Ô":{"ha":764,"x_min":-22,"x_max":653,"o":"m 538 983 l 315 1096 l 92 983 l 18 1129 l 315 1281 l 613 1129 l 538 983 m 315 -3 q 61 94 147 -3 q -22 357 -22 186 l -22 629 q 60 893 -22 801 q 315 990 146 990 q 571 893 483 990 q 653 629 653 801 l 653 357 q 568 92 653 186 q 315 -3 483 -3 m 489 629 q 454 778 489 733 q 315 826 414 826 q 178 780 215 826 q 142 629 142 733 l 142 357 q 176 210 142 254 q 315 161 215 161 q 454 210 414 161 q 489 357 489 254 l 489 629 z "},"Ò":{"ha":764,"x_min":-22,"x_max":653,"o":"m 544 992 q 64 1088 386 1024 l 94 1249 q 576 1153 253 1217 l 544 992 m 315 -3 q 61 94 147 -3 q -22 357 -22 186 l -22 629 q 60 893 -22 801 q 315 990 146 990 q 571 893 483 990 q 653 629 653 801 l 653 357 q 568 92 653 186 q 315 -3 483 -3 m 489 629 q 454 778 489 733 q 315 826 414 826 q 178 780 215 826 q 142 629 142 733 l 142 357 q 176 210 142 254 q 315 161 215 161 q 454 210 414 161 q 489 357 489 254 l 489 629 z "},"Ú":{"ha":796,"x_min":-11,"x_max":664,"o":"m 103 1029 l 71 1190 q 551 1286 229 1222 l 583 1125 q 103 1029 425 1093 m 325 -3 q 71 94 157 -3 q -11 357 -11 186 l -11 990 l 153 990 l 153 357 q 188 210 153 254 q 325 161 226 161 q 464 210 425 161 q 500 357 500 254 l 500 990 l 664 990 l 664 357 q 579 92 664 186 q 325 -3 494 -3 z "},"Û":{"ha":796,"x_min":-11,"x_max":664,"o":"m 549 1022 l 325 1135 l 103 1022 l 28 1168 l 325 1319 l 622 1168 l 549 1022 m 325 -3 q 71 94 157 -3 q -11 357 -11 186 l -11 990 l 153 990 l 153 357 q 188 210 153 254 q 325 161 226 161 q 464 210 425 161 q 500 357 500 254 l 500 990 l 664 990 l 664 357 q 579 92 664 186 q 325 -3 494 -3 z "},"Ù":{"ha":800,"x_min":-11,"x_max":664,"o":"m 550 1033 q 69 1129 393 1065 l 101 1290 q 582 1194 260 1258 l 550 1033 m 325 -3 q 71 94 157 -3 q -11 357 -11 186 l -11 990 l 153 990 l 153 357 q 188 210 153 254 q 325 161 226 161 q 464 210 425 161 q 499 357 499 254 l 499 990 l 664 990 l 664 357 q 579 92 664 186 q 325 -3 494 -3 z "},"ˆ":{"ha":632,"x_min":-32,"x_max":563,"o":"m 489 696 l 265 808 l 42 696 l -32 842 l 265 993 l 563 842 l 489 696 z "},"˜":{"ha":763,"x_min":-39,"x_max":694,"o":"m 640 828 q 461 735 556 735 q 310 780 399 735 q 197 825 221 825 q 136 785 171 825 q 86 725 111 756 l -39 832 q 61 938 33 915 q 196 986 122 986 q 347 942 258 986 q 458 897 435 897 q 519 936 483 897 q 569 996 544 967 l 694 890 q 640 828 675 868 z "},"¯":{"ha":376,"x_min":0,"x_max":0,"o":""},"¸":{"ha":354,"x_min":-17,"x_max":301,"o":"m 165 -344 q 36 -292 89 -344 q -17 -162 -17 -239 q 83 -3 -17 -51 l 83 99 l 246 99 l 244 -71 q 219 -124 243 -103 q 164 -146 196 -146 q 146 -162 146 -146 q 164 -181 146 -181 q 185 -164 172 -181 l 301 -282 q 165 -344 240 -344 z "},"Ž":{"ha":792,"x_min":-14,"x_max":733,"o":"m 363 1018 l 65 1168 l 139 1314 l 363 1201 l 585 1314 l 658 1168 l 363 1018 m -14 -3 l -14 147 q 176 508 -14 399 q 333 575 226 536 q 506 658 464 621 q 569 826 567 714 l -14 826 l -14 990 l 733 990 l 733 840 q 669 598 733 690 q 468 450 604 506 q 318 394 393 422 q 200 318 238 363 q 150 161 151 260 l 733 161 l 733 -3 l -14 -3 z "},"ž":{"ha":732,"x_min":-7,"x_max":667,"o":"m 329 738 l 32 889 l 107 1035 l 329 922 l 553 1035 l 626 889 l 329 738 m 329 275 l 326 275 q 163 161 186 275 l 667 161 l 667 -3 l -7 -3 l -7 79 q 77 344 -7 250 q 329 439 161 439 q 497 556 474 439 l -7 556 l -7 719 l 667 719 l 667 638 q 585 372 667 465 q 329 275 499 275 z "},"≠":{"ha":376,"x_min":0,"x_max":0,"o":""},"∞":{"ha":376,"x_min":0,"x_max":0,"o":""},"≤":{"ha":376,"x_min":0,"x_max":0,"o":""},"≥":{"ha":376,"x_min":0,"x_max":0,"o":""},"∂":{"ha":376,"x_min":0,"x_max":0,"o":""},"∑":{"ha":376,"x_min":0,"x_max":0,"o":""},"∏":{"ha":376,"x_min":0,"x_max":0,"o":""},"π":{"ha":376,"x_min":0,"x_max":0,"o":""},"∫":{"ha":376,"x_min":0,"x_max":0,"o":""},"Ω":{"ha":376,"x_min":0,"x_max":0,"o":""},"√":{"ha":376,"x_min":0,"x_max":0,"o":""},"≈":{"ha":806,"x_min":1,"x_max":735,"o":"m 681 454 q 501 361 597 361 q 350 406 439 361 q 238 451 261 451 q 176 411 213 451 q 128 351 151 381 l 1 458 q 101 564 74 542 q 236 613 164 613 q 387 568 299 613 q 499 524 475 524 q 560 563 524 524 q 610 622 585 593 l 735 517 q 681 454 715 494 m 681 179 q 501 86 596 86 q 350 131 439 86 q 238 176 261 176 q 176 138 211 176 q 128 76 151 107 l 1 183 q 101 289 74 267 q 238 338 163 338 q 387 293 299 338 q 499 249 475 249 q 560 288 524 249 q 610 349 585 318 l 735 243 q 681 179 715 219 z "},"Δ":{"ha":974,"x_min":-25,"x_max":953,"o":"m -25 -3 l 467 826 l 953 -3 l -25 -3 z "},"◊":{"ha":376,"x_min":0,"x_max":0,"o":""},"⁄":{"ha":579,"x_min":-135,"x_max":540,"o":"m 17 -333 l -135 -271 l 390 993 l 540 931 l 17 -333 z "},"":{"ha":614,"x_min":-12,"x_max":574,"o":"m 199 704 q 361 719 213 718 l 361 263 q 433 172 361 194 q 574 161 472 161 l 574 -3 q 197 263 197 -3 l 197 554 l 151 554 l 151 -3 l -12 -3 l -12 725 q 361 990 -12 990 l 361 826 q 222 814 263 826 q 151 725 151 793 l 151 718 l 211 718 l 199 704 z "},"":{"ha":753,"x_min":-14,"x_max":708,"o":"m 333 263 l 333 554 l 150 554 l 150 -3 l -14 -3 l -14 725 q 347 990 -14 990 l 497 990 l 497 263 q 568 172 497 194 q 708 161 607 161 l 708 -3 q 333 263 333 -3 m 333 826 q 213 813 253 826 q 150 725 150 789 l 150 718 l 333 718 l 333 826 z "},"":{"ha":376,"x_min":0,"x_max":0,"o":""},"ı":{"ha":376,"x_min":0,"x_max":0,"o":""},"˘":{"ha":633,"x_min":-32,"x_max":563,"o":"m 265 681 l -32 829 l 42 976 l 265 863 l 489 976 l 563 829 l 265 681 z "},"˙":{"ha":376,"x_min":0,"x_max":0,"o":""},"˚":{"ha":376,"x_min":0,"x_max":0,"o":""},"˝":{"ha":376,"x_min":0,"x_max":0,"o":""},"˛":{"ha":376,"x_min":0,"x_max":0,"o":""},"ˇ":{"ha":376,"x_min":0,"x_max":0,"o":""}}}
